# xmcd CD database file
#
# Track frame offsets:
#	150
#	18887
#	37090
#	51012
#	77437
#	95732
#	119465
#	146047
#	167515
#
# Disc length: 2637 seconds
#
# Revision: 1
# Processed by: cddbd v1.5.1PL0 Copyright (c) Steve Scherf et al.
# Submitted via: CDex 1.50
#
DISCID=6f0a4b09
DTITLE=The Violet Hour - Lazarus
DYEAR=1900
DGENRE=
TTITLE0=The Storyteller's Been up All Night
TTITLE1=Brindisi
TTITLE2=Memory of an Incident
TTITLE3=Unreal City
TTITLE4=Moving House
TTITLE5=No sölo el Fuego
TTITLE6=A Series of Dreams Remembered
TTITLE7=There Is Love
TTITLE8=Lost at Sea
EXTD=
EXTT0=
EXTT1=
EXTT2=
EXTT3=
EXTT4=
EXTT5=
EXTT6=
EXTT7=
EXTT8=
PLAYORDER=
